<?xml version="1.0" encoding="utf-8"?>
<!-- Generator: Adobe Illustrator 16.0.4, SVG Export Plug-In . SVG Version: 6.00 Build 0)  -->
<!DOCTYPE svg PUBLIC "-//W3C//DTD SVG 1.1//EN" "http://www.w3.org/Graphics/SVG/1.1/DTD/svg11.dtd">
<svg version="1.1" id="Layer_1" xmlns="http://www.w3.org/2000/svg" xmlns:xlink="http://www.w3.org/1999/xlink" x="0px" y="0px"
	 width="16px" height="16px" viewBox="0 0 16 16" enable-background="new 0 0 16 16" xml:space="preserve">
<path fill="#0074C8" d="M13.21,0H2.79C1.256,0,0,1.256,0,2.791v10.418C0,14.744,1.256,16,2.79,16h10.42
	c1.534,0,2.79-1.256,2.79-2.791V2.791C16,1.256,14.744,0,13.21,0z M4.928,13.345H2.515V6.132h2.413V13.345z M3.722,5.146H3.705
	c-0.81,0-1.334-0.553-1.334-1.246c0-0.707,0.54-1.245,1.366-1.245c0.825,0,1.333,0.538,1.349,1.245
	C5.086,4.594,4.562,5.146,3.722,5.146z M13.629,13.345h-2.413v-3.86c0-0.969-0.35-1.63-1.222-1.63c-0.668,0-1.064,0.446-1.239,0.878
	c-0.063,0.153-0.08,0.369-0.08,0.584v4.028H6.263c0,0,0.032-6.536,0-7.213h2.412v1.022c0.321-0.491,0.894-1.192,2.175-1.192
	c1.588,0,2.779,1.03,2.779,3.247V13.345z"/>
</svg>
