<?xml version="1.0" encoding="UTF-8" standalone="no"?>
<svg width="24px" height="23px" viewBox="0 0 24 23" version="1.1" xmlns="http://www.w3.org/2000/svg" xmlns:xlink="http://www.w3.org/1999/xlink" xmlns:sketch="http://www.bohemiancoding.com/sketch/ns">
    <!-- Generator: Sketch 3.5.1 (25234) - http://www.bohemiancoding.com/sketch -->
    <title>Fill 1</title>
    <desc>Created with Sketch.</desc>
    <defs></defs>
    <g id="Final" stroke="none" stroke-width="1" fill="none" fill-rule="evenodd" sketch:type="MSPage">
        <g id="Tablet" sketch:type="MSArtboardGroup" transform="translate(-657.000000, -677.000000)" fill="#737373">
            <g id="Footer" sketch:type="MSLayerGroup" transform="translate(0.000000, 181.000000)">
                <g id="Social" transform="translate(528.000000, 496.000000)" sketch:type="MSShapeGroup">
                    <g id="Buttons-Copy">
                        <g id="24px">
                            <g id="Page-1" transform="translate(129.000000, 0.000000)">
                                <path d="M8.08411721,12.0458333 C8.08411721,10.0511231 8.01762687,8.37999922 7.95335287,6.93937518 L12.2730086,6.93937518 L12.5035085,9.16680158 L12.6010277,9.16680158 C13.2548493,8.11847055 14.8616992,6.58032734 17.5434763,6.58032734 C20.8181255,6.58032734 23.2727273,8.77450857 23.2727273,13.4864574 L23.2727273,22.9447083 L18.2970335,22.9447083 L18.2970335,14.076005 C18.2970335,12.0148045 17.5767215,10.6052093 15.7770496,10.6052093 C14.4029159,10.6052093 13.5850847,11.554913 13.2249287,12.4713715 C13.091948,12.7993905 13.0609192,13.2581739 13.0609192,13.7147409 L13.0609192,22.9458164 L8.08522538,22.9458164 L8.08522538,12.0458333 L8.08411721,12.0458333 Z M0.130764336,22.9447083 L0.130764336,6.93937518 L5.10645813,6.93937518 L5.10645813,22.9413837 L0.130764336,22.9413837 L0.130764336,22.9447083 Z M5.26935947,2.4878469 C5.26935947,3.8619806 4.25538178,4.97458563 2.58536606,4.97458563 C1.01508586,4.97458563 0,3.86308877 0,2.4878469 C0,1.08046803 1.04833103,0 2.65074823,0 C4.25538178,0 5.23722247,1.07935986 5.26935947,2.4878469 L5.26935947,2.4878469 Z" id="Fill-1"></path>
                            </g>
                        </g>
                    </g>
                </g>
            </g>
        </g>
    </g>
</svg>